<svg xmlns="http://www.w3.org/2000/svg" viewBox="0 0 400 300">
  <defs>
    <linearGradient id="bg" x1="0%" y1="0%" x2="100%" y2="100%">
      <stop offset="0%" stop-color="#0A0E17"/>
      <stop offset="100%" stop-color="#1a1a2e"/>
    </linearGradient>
  </defs>
  <rect width="400" height="300" fill="url(#bg)"/>
  <!-- Cricket bat -->
  <rect x="160" y="60" width="28" height="140" rx="5" fill="none" stroke="#00c864" stroke-width="3" stroke-linecap="round"/>
  <rect x="160" y="80" width="28" height="80" rx="2" fill="#00c864" opacity="0.1"/>
  <line x1="168" y1="85" x2="180" y2="85" stroke="#00c864" stroke-width="1" opacity="0.4"/>
  <line x1="168" y1="95" x2="180" y2="95" stroke="#00c864" stroke-width="1" opacity="0.4"/>
  <line x1="168" y1="105" x2="180" y2="105" stroke="#00c864" stroke-width="1" opacity="0.4"/>
  <line x1="168" y1="115" x2="180" y2="115" stroke="#00c864" stroke-width="1" opacity="0.4"/>
  <line x1="168" y1="125" x2="180" y2="125" stroke="#00c864" stroke-width="1" opacity="0.4"/>
  <line x1="168" y1="135" x2="180" y2="135" stroke="#00c864" stroke-width="1" opacity="0.4"/>
  <!-- Bat handle -->
  <rect x="163" y="40" width="22" height="25" rx="4" fill="none" stroke="#00c864" stroke-width="2.5"/>
  <line x1="167" y1="44" x2="181" y2="44" stroke="#00c864" stroke-width="1.5" opacity="0.5"/>
  <line x1="167" y1="50" x2="181" y2="50" stroke="#00c864" stroke-width="1.5" opacity="0.5"/>
  <line x1="167" y1="56" x2="181" y2="56" stroke="#00c864" stroke-width="1.5" opacity="0.5"/>
  <!-- Cricket stumps -->
  <line x1="265" y1="80" x2="265" y2="210" stroke="#00c864" stroke-width="3" stroke-linecap="round"/>
  <line x1="285" y1="80" x2="285" y2="210" stroke="#00c864" stroke-width="3" stroke-linecap="round"/>
  <line x1="305" y1="80" x2="305" y2="210" stroke="#00c864" stroke-width="3" stroke-linecap="round"/>
  <!-- Bails -->
  <line x1="260" y1="75" x2="310" y2="75" stroke="#00c864" stroke-width="3" stroke-linecap="round"/>
  <!-- Cricket ball near stumps -->
  <circle cx="320" cy="195" r="18" fill="none" stroke="#00c864" stroke-width="2.5"/>
  <path d="M310 195 Q320 185 330 195 Q320 205 310 195" fill="none" stroke="#00c864" stroke-width="1.5" opacity="0.6"/>
  <path d="M315 188 Q320 195 315 202" fill="none" stroke="#00c864" stroke-width="1" opacity="0.4"/>
  <path d="M325 188 Q320 195 325 202" fill="none" stroke="#00c864" stroke-width="1" opacity="0.4"/>
  <!-- Accent dots -->
  <circle cx="120" cy="70" r="4" fill="#00c864" opacity="0.6"/>
  <circle cx="130" cy="220" r="3" fill="#00c864" opacity="0.4"/>
  <circle cx="350" cy="50" r="2" fill="#00c864" opacity="0.3"/>
</svg>